<svg width="160" height="160" viewBox="0 0 160 160" fill="none" xmlns="http://www.w3.org/2000/svg">
<path fill-rule="evenodd" clip-rule="evenodd" d="M152.163 45.2789L152.816 46.8027C157.605 57.3605 160 68.4625 160 80C160 124.082 124.082 160 80 160C35.9184 160 0 124.082 0 80C0 35.9184 35.9184 0 80 0C92.9525 0 105.252 3.04762 116.572 8.7075L118.095 9.4694L116.789 10.5578C113.524 13.1701 111.021 16.4354 109.388 20.2449L108.952 21.3334L107.973 20.898C99.1565 16.7619 89.796 14.5851 80 14.5851C43.8639 14.5851 14.5851 43.8639 14.5851 80C14.5851 116.136 43.8639 145.415 80 145.415C116.136 145.415 145.415 116.027 145.415 80C145.415 71.4015 143.783 62.9115 140.408 54.966L139.973 53.8775L141.061 53.442C144.87 52.027 148.354 49.6326 151.075 46.585L152.163 45.2789ZM132.354 46.8028C141.551 46.8028 149.007 39.347 149.007 30.1498C149.007 20.9526 141.551 13.4967 132.354 13.4967C123.156 13.4967 115.701 20.9526 115.701 30.1498C115.701 39.347 123.156 46.8028 132.354 46.8028ZM79.9995 43.5377C59.8635 43.5377 43.537 59.864 43.537 80.0005C43.537 100.136 59.8635 116.463 79.9995 116.463C100.135 116.463 116.462 100.136 116.462 80.0005C116.462 59.864 100.135 43.5377 79.9995 43.5377Z" fill="url(#paint0_linear_3_40)"/>
<path d="M154.658 78.4142C145.992 65.9313 128.739 62.2739 116.335 70.1453L94.4704 84.1388C88.5072 87.8757 84.3728 93.9979 83.1801 100.915C82.1465 106.719 83.0211 112.682 85.8039 117.85C83.8957 120.713 82.6236 123.893 82.067 127.233C80.7949 134.309 82.4646 141.624 86.599 147.428C95.345 159.911 112.519 163.568 124.922 155.697L146.787 141.783C152.75 138.046 156.885 131.924 158.077 125.006C159.111 119.202 158.236 113.239 155.454 108.071C157.362 105.209 158.634 102.028 159.19 98.6889C160.542 91.5331 158.872 84.2183 154.658 78.4142Z" fill="url(#paint1_linear_3_40)"/>
<path d="M114.325 149.012C107.249 150.84 99.8549 148.058 95.7204 142.095C93.1762 138.596 92.2221 134.223 92.9376 129.93C93.0967 129.214 93.2557 128.578 93.4147 127.862L93.8122 126.59L94.9254 127.385C97.5491 129.294 100.411 130.725 103.512 131.679L104.307 131.917L104.228 132.712C104.148 133.826 104.466 135.018 105.102 135.972C106.375 137.801 108.601 138.676 110.748 138.119C111.225 137.96 111.702 137.801 112.099 137.563L133.885 123.649C134.998 122.933 135.713 121.899 135.952 120.627C136.19 119.355 135.872 118.003 135.157 116.97C133.885 115.141 131.658 114.346 129.512 114.903C129.035 115.062 128.558 115.221 128.16 115.459L119.812 120.786C118.46 121.661 116.949 122.297 115.359 122.694C108.283 124.523 100.889 121.74 96.7541 115.777C94.2893 112.279 93.2557 107.906 94.0508 103.612C94.7663 99.4779 97.3106 95.7409 100.889 93.5147L122.753 79.6007C124.105 78.7261 125.616 78.09 127.206 77.613C134.282 75.7843 141.676 78.5671 145.811 84.5302C148.355 88.0286 149.309 92.4016 148.594 96.695C148.435 97.4106 148.276 98.0467 148.037 98.7623L147.64 100.034L146.527 99.2393C143.903 97.3311 141.04 95.9 137.94 94.9459L137.144 94.7073L137.224 93.9122C137.304 92.7991 136.985 91.6065 136.349 90.6524C135.077 88.8237 132.851 88.0286 130.704 88.5852C130.227 88.7442 129.75 88.9032 129.353 89.1417L107.567 103.056C106.454 103.771 105.739 104.805 105.5 106.077C105.261 107.349 105.58 108.701 106.295 109.734C107.567 111.563 109.793 112.358 111.94 111.802C112.417 111.643 112.894 111.484 113.292 111.245L121.64 105.918C122.992 105.043 124.503 104.407 126.093 103.93C133.169 102.102 140.563 104.884 144.698 110.848C147.242 114.346 148.196 118.719 147.481 123.012C146.765 127.147 144.221 130.884 140.643 133.11L118.778 147.024C117.426 147.899 115.916 148.535 114.325 149.012Z" fill="white"/>
<defs>
<linearGradient id="paint0_linear_3_40" x1="64.5" y1="60.2752" x2="123.145" y2="133.474" gradientUnits="userSpaceOnUse">
<stop stop-color="#4A8BFC"/>
<stop offset="1" stop-color="#FF3E00"/>
</linearGradient>
<linearGradient id="paint1_linear_3_40" x1="94" y1="79.9049" x2="125" y2="110.905" gradientUnits="userSpaceOnUse">
<stop stop-color="#4A8BFC"/>
<stop offset="1" stop-color="#FF3E00"/>
</linearGradient>
</defs>
</svg>
