<?xml version="1.0" standalone="no"?>
<!DOCTYPE svg PUBLIC "-//W3C//DTD SVG 20010904//EN"
 "http://www.w3.org/TR/2001/REC-SVG-20010904/DTD/svg10.dtd">
<svg version="1.0" xmlns="http://www.w3.org/2000/svg"
 width="640.000000pt" height="640.000000pt" viewBox="0 0 640.000000 640.000000"
 preserveAspectRatio="xMidYMid meet">
<metadata>
Created by potrace 1.14, written by Peter Selinger 2001-2017
</metadata>
<g transform="translate(0.000000,640.000000) scale(0.100000,-0.100000)"
fill="#000000" stroke="none">
<path d="M2960 6389 c-511 -38 -1017 -205 -1452 -477 -212 -133 -358 -251
-563 -457 -192 -191 -282 -300 -412 -495 -527 -793 -670 -1773 -392 -2690 206
-682 648 -1287 1244 -1702 708 -494 1604 -676 2459 -501 l128 26 84 -27 c228
-75 495 -75 710 -2 115 39 181 77 689 400 450 285 497 318 581 401 142 139
224 281 271 465 57 228 37 472 -59 681 l-29 66 32 54 c47 81 89 193 110 295
35 171 45 934 15 1169 -41 323 -119 597 -271 948 l-16 39 -98 -95 c-101 -98
-198 -163 -320 -213 -36 -15 -67 -29 -69 -29 -1 -1 11 -34 28 -74 58 -142 123
-366 145 -500 6 -35 5 -43 -6 -38 -175 73 -270 101 -403 117 -232 30 -491 -24
-685 -142 -35 -21 -65 -37 -67 -35 -2 1 -20 50 -39 107 -174 498 -603 863
-1128 957 -212 38 -498 15 -707 -55 -443 -150 -788 -501 -929 -945 -48 -150
-64 -261 -64 -437 0 -181 22 -318 79 -482 213 -612 816 -1013 1461 -973 l113
6 16 -33 c15 -33 15 -35 -20 -94 -89 -150 -131 -333 -123 -544 5 -156 26 -251
87 -392 22 -50 37 -94 34 -97 -13 -13 -403 -4 -524 13 -483 65 -936 257 -1310
556 -459 367 -792 905 -919 1485 -41 188 -55 322 -55 545 0 219 10 336 45 515
201 1022 994 1831 2014 2054 194 42 321 55 555 55 420 -1 709 -66 1146 -260 6
-3 21 19 33 48 44 105 113 201 224 311 60 60 107 110 105 113 -3 2 -60 30
-129 63 -502 238 -1065 342 -1619 300z m2495 -3099 c122 -38 202 -87 296 -180
69 -68 94 -102 127 -170 61 -124 75 -192 69 -325 -3 -70 -11 -129 -23 -162
l-19 -52 -75 50 c-82 55 -206 117 -287 144 -53 17 -53 17 -53 58 0 63 -41 140
-90 173 -57 38 -149 45 -206 16 -33 -17 -717 -451 -879 -558 -71 -46 -99 -98
-93 -174 6 -78 40 -129 109 -164 58 -28 105 -32 159 -13 19 7 121 68 226 135
105 67 212 131 236 142 180 79 407 69 588 -26 267 -140 414 -438 355 -718 -29
-139 -109 -270 -212 -348 -68 -52 -938 -606 -1001 -637 -114 -57 -307 -77
-440 -46 -132 31 -289 125 -364 217 -112 138 -157 247 -165 404 -6 97 12 224
36 262 6 10 29 0 97 -44 87 -57 239 -130 295 -141 27 -5 29 -9 29 -52 1 -141
149 -249 276 -201 37 14 902 567 938 599 125 113 27 331 -149 331 -54 0 -93
-19 -280 -138 -210 -134 -273 -166 -373 -187 -315 -66 -647 105 -777 400 -79
177 -68 396 27 563 69 121 108 151 621 478 265 169 510 320 543 336 130 61
314 72 459 28z"/>
<path d="M5184 5850 c-143 -26 -264 -92 -369 -201 -250 -262 -245 -669 11
-925 197 -197 502 -250 750 -130 349 168 482 575 301 921 -43 81 -173 212
-257 258 -36 19 -96 45 -135 57 -80 24 -224 34 -301 20z"/>
</g>
</svg>
